<mxfile host="Electron" agent="Mozilla/5.0 (Windows NT 10.0; Win64; x64) AppleWebKit/537.36 (KHTML, like Gecko) draw.io/24.7.17 Chrome/128.0.6613.36 Electron/32.0.1 Safari/537.36" version="24.7.17">
  <diagram name="Page-1" id="W_-CzWAkkYKx4v1ymLVc">
    <mxGraphModel dx="2074" dy="1214" grid="1" gridSize="10" guides="1" tooltips="1" connect="1" arrows="1" fold="1" page="1" pageScale="1" pageWidth="1654" pageHeight="1169" math="0" shadow="0">
      <root>
        <mxCell id="0" />
        <mxCell id="1" parent="0" />
        <mxCell id="2VxCJxhyZsjzoVnn5Nle-116" value="" style="group" parent="1" vertex="1" connectable="0">
          <mxGeometry x="402" y="235" width="850" height="700" as="geometry" />
        </mxCell>
        <mxCell id="2VxCJxhyZsjzoVnn5Nle-55" value="&lt;div&gt;&lt;b&gt;ILibraryInfo&lt;/b&gt;&lt;/div&gt;&lt;div&gt;&lt;font style=&quot;font-size: 10px&quot;&gt;Detailed information&lt;/font&gt;&lt;/div&gt;&lt;div&gt;&lt;font style=&quot;font-size: 10px&quot;&gt;about PKCS#11 library&lt;/font&gt;&lt;b&gt;&lt;br&gt;&lt;/b&gt;&lt;/div&gt;" style="rounded=1;whiteSpace=wrap;html=1;strokeColor=#666666;fillColor=#f5f5f5;fontColor=#333333;" parent="2VxCJxhyZsjzoVnn5Nle-116" vertex="1">
          <mxGeometry x="400" y="90" width="210" height="60" as="geometry" />
        </mxCell>
        <mxCell id="2VxCJxhyZsjzoVnn5Nle-72" style="edgeStyle=orthogonalEdgeStyle;rounded=0;orthogonalLoop=1;jettySize=auto;html=1;entryX=0;entryY=0.5;entryDx=0;entryDy=0;" parent="2VxCJxhyZsjzoVnn5Nle-116" source="2VxCJxhyZsjzoVnn5Nle-56" target="2VxCJxhyZsjzoVnn5Nle-55" edge="1">
          <mxGeometry relative="1" as="geometry" />
        </mxCell>
        <mxCell id="2VxCJxhyZsjzoVnn5Nle-77" style="edgeStyle=orthogonalEdgeStyle;rounded=0;orthogonalLoop=1;jettySize=auto;html=1;entryX=0.5;entryY=0;entryDx=0;entryDy=0;" parent="2VxCJxhyZsjzoVnn5Nle-116" source="2VxCJxhyZsjzoVnn5Nle-56" target="2VxCJxhyZsjzoVnn5Nle-57" edge="1">
          <mxGeometry relative="1" as="geometry" />
        </mxCell>
        <mxCell id="2VxCJxhyZsjzoVnn5Nle-56" value="&lt;div&gt;&lt;b&gt;IPkcs11Library&lt;/b&gt;&lt;/div&gt;&lt;div&gt;&lt;font style=&quot;font-size: 10px&quot;&gt;Unmanaged PKCS#11 library&lt;/font&gt;&lt;b&gt;&lt;br&gt;&lt;/b&gt;&lt;/div&gt;" style="rounded=1;whiteSpace=wrap;html=1;strokeColor=#6c8ebf;fillColor=#dae8fc;fontColor=default;" parent="2VxCJxhyZsjzoVnn5Nle-116" vertex="1">
          <mxGeometry x="160" y="90" width="210" height="60" as="geometry" />
        </mxCell>
        <mxCell id="2VxCJxhyZsjzoVnn5Nle-74" style="edgeStyle=orthogonalEdgeStyle;rounded=0;orthogonalLoop=1;jettySize=auto;html=1;entryX=0;entryY=0.5;entryDx=0;entryDy=0;" parent="2VxCJxhyZsjzoVnn5Nle-116" source="2VxCJxhyZsjzoVnn5Nle-57" target="2VxCJxhyZsjzoVnn5Nle-58" edge="1">
          <mxGeometry relative="1" as="geometry" />
        </mxCell>
        <mxCell id="2VxCJxhyZsjzoVnn5Nle-89" style="edgeStyle=orthogonalEdgeStyle;rounded=0;orthogonalLoop=1;jettySize=auto;html=1;" parent="2VxCJxhyZsjzoVnn5Nle-116" source="2VxCJxhyZsjzoVnn5Nle-57" target="2VxCJxhyZsjzoVnn5Nle-65" edge="1">
          <mxGeometry relative="1" as="geometry" />
        </mxCell>
        <mxCell id="2VxCJxhyZsjzoVnn5Nle-93" style="edgeStyle=orthogonalEdgeStyle;rounded=0;orthogonalLoop=1;jettySize=auto;html=1;entryX=0;entryY=0.5;entryDx=0;entryDy=0;" parent="2VxCJxhyZsjzoVnn5Nle-116" source="2VxCJxhyZsjzoVnn5Nle-57" target="2VxCJxhyZsjzoVnn5Nle-60" edge="1">
          <mxGeometry relative="1" as="geometry">
            <Array as="points">
              <mxPoint x="350" y="290" />
            </Array>
          </mxGeometry>
        </mxCell>
        <mxCell id="2VxCJxhyZsjzoVnn5Nle-95" style="edgeStyle=orthogonalEdgeStyle;rounded=0;orthogonalLoop=1;jettySize=auto;html=1;entryX=0;entryY=0.5;entryDx=0;entryDy=0;" parent="2VxCJxhyZsjzoVnn5Nle-116" source="2VxCJxhyZsjzoVnn5Nle-57" target="2VxCJxhyZsjzoVnn5Nle-62" edge="1">
          <mxGeometry relative="1" as="geometry">
            <Array as="points">
              <mxPoint x="320" y="370" />
            </Array>
          </mxGeometry>
        </mxCell>
        <mxCell id="2VxCJxhyZsjzoVnn5Nle-57" value="&lt;div&gt;&lt;b&gt;ISlot&lt;/b&gt;&lt;/div&gt;&lt;div style=&quot;font-size: 10px&quot;&gt;Logical reader (e.g. smartcard reader)&lt;br&gt;that potentially contains a token&lt;b&gt;&lt;br&gt;&lt;/b&gt;&lt;/div&gt;" style="rounded=1;whiteSpace=wrap;html=1;strokeColor=#6c8ebf;fillColor=#dae8fc;fontColor=default;" parent="2VxCJxhyZsjzoVnn5Nle-116" vertex="1">
          <mxGeometry x="160" y="180" width="210" height="60" as="geometry" />
        </mxCell>
        <mxCell id="2VxCJxhyZsjzoVnn5Nle-75" style="edgeStyle=orthogonalEdgeStyle;rounded=0;orthogonalLoop=1;jettySize=auto;html=1;entryX=0;entryY=0.5;entryDx=0;entryDy=0;" parent="2VxCJxhyZsjzoVnn5Nle-116" source="2VxCJxhyZsjzoVnn5Nle-58" target="2VxCJxhyZsjzoVnn5Nle-59" edge="1">
          <mxGeometry relative="1" as="geometry" />
        </mxCell>
        <mxCell id="2VxCJxhyZsjzoVnn5Nle-58" value="&lt;div&gt;&lt;b&gt;ISlotInfo&lt;/b&gt;&lt;/div&gt;&lt;div&gt;&lt;font style=&quot;font-size: 10px&quot;&gt;Detailed information&lt;/font&gt;&lt;/div&gt;&lt;div&gt;&lt;font style=&quot;background-color: initial; font-size: 10px;&quot;&gt;about the slot&lt;/font&gt;&lt;/div&gt;" style="rounded=1;whiteSpace=wrap;html=1;strokeColor=#666666;fillColor=#f5f5f5;fontColor=#333333;" parent="2VxCJxhyZsjzoVnn5Nle-116" vertex="1">
          <mxGeometry x="400" y="180" width="210" height="60" as="geometry" />
        </mxCell>
        <mxCell id="2VxCJxhyZsjzoVnn5Nle-59" value="&lt;div&gt;&lt;b&gt;ISlotInfoFlags&lt;/b&gt;&lt;/div&gt;&lt;div&gt;&lt;span style=&quot;background-color: initial; font-size: 10px;&quot;&gt;Flags describing slot capabilities&lt;/span&gt;&lt;/div&gt;" style="rounded=1;whiteSpace=wrap;html=1;strokeColor=#666666;fillColor=#f5f5f5;fontColor=#333333;" parent="2VxCJxhyZsjzoVnn5Nle-116" vertex="1">
          <mxGeometry x="640" y="180" width="210" height="60" as="geometry" />
        </mxCell>
        <mxCell id="2VxCJxhyZsjzoVnn5Nle-83" style="edgeStyle=orthogonalEdgeStyle;rounded=0;orthogonalLoop=1;jettySize=auto;html=1;entryX=0;entryY=0.5;entryDx=0;entryDy=0;" parent="2VxCJxhyZsjzoVnn5Nle-116" source="2VxCJxhyZsjzoVnn5Nle-60" target="2VxCJxhyZsjzoVnn5Nle-61" edge="1">
          <mxGeometry relative="1" as="geometry" />
        </mxCell>
        <mxCell id="2VxCJxhyZsjzoVnn5Nle-60" value="&lt;div&gt;&lt;b&gt;ITokenInfo&lt;/b&gt;&lt;/div&gt;&lt;div&gt;&lt;font style=&quot;font-size: 10px&quot;&gt;Detailed information&amp;nbsp;&lt;/font&gt;&lt;font style=&quot;background-color: initial; font-size: 10px;&quot;&gt;about the&amp;nbsp;&lt;/font&gt;&lt;span style=&quot;background-color: initial; color: rgb(0, 0, 0); font-size: 10px;&quot;&gt;device&lt;/span&gt;&lt;/div&gt;&lt;div&gt;&lt;span style=&quot;background-color: initial; color: rgb(0, 0, 0); font-size: 10px;&quot;&gt;(e.g. smartcard)&amp;nbsp;&lt;/span&gt;&lt;span style=&quot;color: rgb(0, 0, 0); font-size: 10px; background-color: initial;&quot;&gt;present in the slot&lt;/span&gt;&lt;/div&gt;" style="rounded=1;whiteSpace=wrap;html=1;strokeColor=#666666;fillColor=#f5f5f5;fontColor=#333333;" parent="2VxCJxhyZsjzoVnn5Nle-116" vertex="1">
          <mxGeometry x="400" y="260" width="210" height="60" as="geometry" />
        </mxCell>
        <mxCell id="2VxCJxhyZsjzoVnn5Nle-61" value="&lt;div&gt;&lt;b&gt;ITokenInfoFlags&lt;/b&gt;&lt;/div&gt;&lt;div&gt;&lt;span style=&quot;background-color: initial; font-size: 10px;&quot;&gt;Flags describing token capabilities&lt;/span&gt;&lt;/div&gt;" style="rounded=1;whiteSpace=wrap;html=1;strokeColor=#666666;fillColor=#f5f5f5;fontColor=#333333;" parent="2VxCJxhyZsjzoVnn5Nle-116" vertex="1">
          <mxGeometry x="640" y="260" width="210" height="60" as="geometry" />
        </mxCell>
        <mxCell id="2VxCJxhyZsjzoVnn5Nle-84" style="edgeStyle=orthogonalEdgeStyle;rounded=0;orthogonalLoop=1;jettySize=auto;html=1;entryX=0;entryY=0.5;entryDx=0;entryDy=0;" parent="2VxCJxhyZsjzoVnn5Nle-116" source="2VxCJxhyZsjzoVnn5Nle-62" target="2VxCJxhyZsjzoVnn5Nle-63" edge="1">
          <mxGeometry relative="1" as="geometry" />
        </mxCell>
        <mxCell id="2VxCJxhyZsjzoVnn5Nle-62" value="&lt;div&gt;&lt;b&gt;IMechanismInfo&lt;/b&gt;&lt;/div&gt;&lt;div&gt;&lt;font style=&quot;font-size: 10px&quot;&gt;Detailed information&amp;nbsp;&lt;/font&gt;&lt;font style=&quot;background-color: initial; font-size: 10px;&quot;&gt;about&lt;br&gt;the mechanism supported by the token&lt;/font&gt;&lt;/div&gt;" style="rounded=1;whiteSpace=wrap;html=1;strokeColor=#666666;fillColor=#f5f5f5;fontColor=#333333;" parent="2VxCJxhyZsjzoVnn5Nle-116" vertex="1">
          <mxGeometry x="400" y="340" width="210" height="60" as="geometry" />
        </mxCell>
        <mxCell id="2VxCJxhyZsjzoVnn5Nle-63" value="&lt;div&gt;&lt;b&gt;IMechanismFlags&lt;/b&gt;&lt;/div&gt;&lt;div&gt;&lt;span style=&quot;background-color: initial; font-size: 10px;&quot;&gt;Flags describing mechanism capabilities&lt;/span&gt;&lt;/div&gt;" style="rounded=1;whiteSpace=wrap;html=1;strokeColor=#666666;fillColor=#f5f5f5;fontColor=#333333;" parent="2VxCJxhyZsjzoVnn5Nle-116" vertex="1">
          <mxGeometry x="640" y="340" width="210" height="60" as="geometry" />
        </mxCell>
        <mxCell id="2VxCJxhyZsjzoVnn5Nle-70" style="edgeStyle=orthogonalEdgeStyle;rounded=0;orthogonalLoop=1;jettySize=auto;html=1;entryX=0.5;entryY=0;entryDx=0;entryDy=0;" parent="2VxCJxhyZsjzoVnn5Nle-116" source="2VxCJxhyZsjzoVnn5Nle-64" target="2VxCJxhyZsjzoVnn5Nle-56" edge="1">
          <mxGeometry relative="1" as="geometry" />
        </mxCell>
        <mxCell id="2VxCJxhyZsjzoVnn5Nle-64" value="&lt;div&gt;&lt;font&gt;&lt;b&gt;Pkcs11InteropFactories&lt;/b&gt;&lt;/font&gt;&lt;/div&gt;&lt;div style=&quot;&quot;&gt;&lt;font style=&quot;&quot;&gt;&lt;span style=&quot;font-size: 10px;&quot;&gt;Factories to be used by the developer&lt;br&gt;and Pkcs11Interop library&lt;/span&gt;&lt;br&gt;&lt;/font&gt;&lt;/div&gt;" style="rounded=1;whiteSpace=wrap;html=1;strokeColor=#b85450;fillColor=#f8cecc;" parent="2VxCJxhyZsjzoVnn5Nle-116" vertex="1">
          <mxGeometry x="160" width="210" height="60" as="geometry" />
        </mxCell>
        <mxCell id="2VxCJxhyZsjzoVnn5Nle-91" style="edgeStyle=orthogonalEdgeStyle;rounded=0;orthogonalLoop=1;jettySize=auto;html=1;entryX=0;entryY=0.5;entryDx=0;entryDy=0;" parent="2VxCJxhyZsjzoVnn5Nle-116" source="2VxCJxhyZsjzoVnn5Nle-65" target="2VxCJxhyZsjzoVnn5Nle-81" edge="1">
          <mxGeometry relative="1" as="geometry" />
        </mxCell>
        <mxCell id="2VxCJxhyZsjzoVnn5Nle-65" value="&lt;div&gt;&lt;b&gt;ISession&lt;/b&gt;&lt;/div&gt;&lt;div style=&quot;&quot;&gt;&lt;span style=&quot;font-size: 10px;&quot;&gt;Logical connection between&lt;/span&gt;&lt;/div&gt;&lt;div style=&quot;&quot;&gt;&lt;span style=&quot;font-size: 10px;&quot;&gt;the application and token&lt;/span&gt;&lt;br&gt;&lt;/div&gt;" style="rounded=1;whiteSpace=wrap;html=1;strokeColor=#6c8ebf;fillColor=#dae8fc;fontColor=default;" parent="2VxCJxhyZsjzoVnn5Nle-116" vertex="1">
          <mxGeometry x="160" y="420" width="210" height="60" as="geometry" />
        </mxCell>
        <mxCell id="2VxCJxhyZsjzoVnn5Nle-85" style="edgeStyle=orthogonalEdgeStyle;rounded=0;orthogonalLoop=1;jettySize=auto;html=1;entryX=0;entryY=0.5;entryDx=0;entryDy=0;" parent="2VxCJxhyZsjzoVnn5Nle-116" source="2VxCJxhyZsjzoVnn5Nle-81" target="2VxCJxhyZsjzoVnn5Nle-82" edge="1">
          <mxGeometry relative="1" as="geometry" />
        </mxCell>
        <mxCell id="2VxCJxhyZsjzoVnn5Nle-81" value="&lt;div&gt;&lt;b&gt;ISessionInfo&lt;/b&gt;&lt;/div&gt;&lt;div&gt;&lt;font style=&quot;font-size: 10px&quot;&gt;Detailed information&lt;/font&gt;&lt;/div&gt;&lt;div&gt;&lt;font style=&quot;background-color: initial; font-size: 10px;&quot;&gt;about the session&lt;/font&gt;&lt;/div&gt;" style="rounded=1;whiteSpace=wrap;html=1;strokeColor=#666666;fillColor=#f5f5f5;fontColor=#333333;" parent="2VxCJxhyZsjzoVnn5Nle-116" vertex="1">
          <mxGeometry x="400" y="420" width="210" height="60" as="geometry" />
        </mxCell>
        <mxCell id="2VxCJxhyZsjzoVnn5Nle-82" value="&lt;div&gt;&lt;b&gt;ISessionFlags&lt;/b&gt;&lt;/div&gt;&lt;div&gt;&lt;span style=&quot;font-size: 10px;&quot;&gt;&amp;nbsp;Flags that define the type of session&lt;/span&gt;&lt;br&gt;&lt;/div&gt;" style="rounded=1;whiteSpace=wrap;html=1;strokeColor=#666666;fillColor=#f5f5f5;fontColor=#333333;" parent="2VxCJxhyZsjzoVnn5Nle-116" vertex="1">
          <mxGeometry x="640" y="420" width="210" height="60" as="geometry" />
        </mxCell>
        <mxCell id="2VxCJxhyZsjzoVnn5Nle-111" value="" style="group" parent="2VxCJxhyZsjzoVnn5Nle-116" vertex="1" connectable="0">
          <mxGeometry y="510" width="250" height="190" as="geometry" />
        </mxCell>
        <mxCell id="2VxCJxhyZsjzoVnn5Nle-66" value="&lt;div&gt;&lt;b&gt;IMechanism&lt;/b&gt;&lt;/div&gt;&lt;div style=&quot;&quot;&gt;&lt;span style=&quot;font-size: 10px;&quot;&gt;Cryptographic algorithm&lt;/span&gt;&lt;/div&gt;" style="rounded=1;whiteSpace=wrap;html=1;strokeColor=#6c8ebf;fillColor=#dae8fc;fontColor=default;" parent="2VxCJxhyZsjzoVnn5Nle-111" vertex="1">
          <mxGeometry x="20" y="30" width="210" height="60" as="geometry" />
        </mxCell>
        <mxCell id="2VxCJxhyZsjzoVnn5Nle-67" value="&lt;div&gt;&lt;b&gt;IMechanismParams&lt;/b&gt;&lt;/div&gt;&lt;div style=&quot;&quot;&gt;&lt;span style=&quot;font-size: 10px;&quot;&gt;Parameters for cryptographic algorithm&lt;/span&gt;&lt;/div&gt;" style="rounded=1;whiteSpace=wrap;html=1;strokeColor=#6c8ebf;fillColor=#dae8fc;fontColor=default;" parent="2VxCJxhyZsjzoVnn5Nle-111" vertex="1">
          <mxGeometry x="20" y="110" width="210" height="60" as="geometry" />
        </mxCell>
        <mxCell id="2VxCJxhyZsjzoVnn5Nle-108" value="&lt;b&gt;&amp;nbsp; PKCS#11 mechanism&lt;/b&gt;" style="rounded=0;whiteSpace=wrap;html=1;fillColor=none;align=left;verticalAlign=top;dashed=1;" parent="2VxCJxhyZsjzoVnn5Nle-111" vertex="1">
          <mxGeometry width="250" height="190" as="geometry" />
        </mxCell>
        <mxCell id="2VxCJxhyZsjzoVnn5Nle-112" value="" style="group" parent="2VxCJxhyZsjzoVnn5Nle-116" vertex="1" connectable="0">
          <mxGeometry x="290" y="510" width="250" height="190" as="geometry" />
        </mxCell>
        <mxCell id="2VxCJxhyZsjzoVnn5Nle-104" value="&lt;b&gt;&amp;nbsp; PKCS#11 object&lt;/b&gt;" style="rounded=0;whiteSpace=wrap;html=1;fillColor=none;align=left;verticalAlign=top;dashed=1;" parent="2VxCJxhyZsjzoVnn5Nle-112" vertex="1">
          <mxGeometry width="250" height="190" as="geometry" />
        </mxCell>
        <mxCell id="2VxCJxhyZsjzoVnn5Nle-68" value="&lt;div&gt;&lt;b&gt;IObjectHandle&lt;/b&gt;&lt;/div&gt;&lt;div style=&quot;&quot;&gt;&lt;span style=&quot;font-size: 10px;&quot;&gt;Token-specific identifier&lt;/span&gt;&lt;/div&gt;&lt;div style=&quot;&quot;&gt;&lt;span style=&quot;font-size: 10px;&quot;&gt;for PKCS#11 object&lt;/span&gt;&lt;br&gt;&lt;/div&gt;" style="rounded=1;whiteSpace=wrap;html=1;strokeColor=#6c8ebf;fillColor=#dae8fc;fontColor=default;" parent="2VxCJxhyZsjzoVnn5Nle-112" vertex="1">
          <mxGeometry x="20" y="30" width="210" height="60" as="geometry" />
        </mxCell>
        <mxCell id="2VxCJxhyZsjzoVnn5Nle-69" value="&lt;div&gt;&lt;b&gt;IObjectAttribute&lt;/b&gt;&lt;/div&gt;&lt;div style=&quot;&quot;&gt;&lt;span style=&quot;font-size: 10px;&quot;&gt;Attribute of PKCS#11 object&lt;/span&gt;&lt;br&gt;&lt;/div&gt;" style="rounded=1;whiteSpace=wrap;html=1;strokeColor=#6c8ebf;fillColor=#dae8fc;fontColor=default;" parent="2VxCJxhyZsjzoVnn5Nle-112" vertex="1">
          <mxGeometry x="20" y="110" width="210" height="60" as="geometry" />
        </mxCell>
        <mxCell id="2VxCJxhyZsjzoVnn5Nle-114" style="edgeStyle=orthogonalEdgeStyle;rounded=0;orthogonalLoop=1;jettySize=auto;html=1;exitX=0.25;exitY=1;exitDx=0;exitDy=0;entryX=0.851;entryY=-0.003;entryDx=0;entryDy=0;entryPerimeter=0;dashed=1;" parent="2VxCJxhyZsjzoVnn5Nle-116" source="2VxCJxhyZsjzoVnn5Nle-65" target="2VxCJxhyZsjzoVnn5Nle-108" edge="1">
          <mxGeometry relative="1" as="geometry" />
        </mxCell>
        <mxCell id="2VxCJxhyZsjzoVnn5Nle-115" style="edgeStyle=orthogonalEdgeStyle;rounded=0;orthogonalLoop=1;jettySize=auto;html=1;exitX=0.75;exitY=1;exitDx=0;exitDy=0;entryX=0.109;entryY=-0.017;entryDx=0;entryDy=0;entryPerimeter=0;dashed=1;" parent="2VxCJxhyZsjzoVnn5Nle-116" source="2VxCJxhyZsjzoVnn5Nle-65" target="2VxCJxhyZsjzoVnn5Nle-104" edge="1">
          <mxGeometry relative="1" as="geometry" />
        </mxCell>
      </root>
    </mxGraphModel>
  </diagram>
</mxfile>
